<svg width="708" height="271" viewBox="0 0 708 271" fill="none" xmlns="http://www.w3.org/2000/svg">
<g filter="url(#filter0_d)">
<path d="M154.459 125.32C166.171 127.816 175.579 133.672 182.683 142.888C189.787 151.912 193.339 162.28 193.339 173.992C193.339 190.888 187.387 204.328 175.483 214.312C163.771 224.104 147.355 229 126.235 229H32.0591V26.824H123.067C143.611 26.824 159.643 31.528 171.163 40.936C182.875 50.344 188.731 63.112 188.731 79.24C188.731 91.144 185.563 101.032 179.227 108.904C173.083 116.776 164.827 122.248 154.459 125.32ZM81.3071 108.616H113.563C121.627 108.616 127.771 106.888 131.995 103.432C136.411 99.784 138.619 94.504 138.619 87.592C138.619 80.68 136.411 75.4 131.995 71.752C127.771 68.104 121.627 66.28 113.563 66.28H81.3071V108.616ZM117.595 189.256C125.851 189.256 132.187 187.432 136.603 183.784C141.211 179.944 143.515 174.472 143.515 167.368C143.515 160.264 141.115 154.696 136.315 150.664C131.707 146.632 125.275 144.616 117.019 144.616H81.3071V189.256H117.595ZM450.863 26.824V229H401.615V107.752L356.399 229H316.655L271.151 107.464V229H221.903V26.824H280.079L336.815 166.792L392.975 26.824H450.863ZM477.926 127.624C477.926 107.656 482.246 89.896 490.886 74.344C499.526 58.6 511.526 46.408 526.886 37.768C542.438 28.936 560.006 24.52 579.59 24.52C603.59 24.52 624.134 30.856 641.222 43.528C658.31 56.2 669.734 73.48 675.494 95.368H621.35C617.318 86.92 611.558 80.488 604.07 76.072C596.774 71.656 588.422 69.448 579.014 69.448C563.846 69.448 551.558 74.728 542.15 85.288C532.742 95.848 528.038 109.96 528.038 127.624C528.038 145.288 532.742 159.4 542.15 169.96C551.558 180.52 563.846 185.8 579.014 185.8C588.422 185.8 596.774 183.592 604.07 179.176C611.558 174.76 617.318 168.328 621.35 159.88H675.494C669.734 181.768 658.31 199.048 641.222 211.72C624.134 224.2 603.59 230.44 579.59 230.44C560.006 230.44 542.438 226.12 526.886 217.48C511.526 208.648 499.526 196.456 490.886 180.904C482.246 165.352 477.926 147.592 477.926 127.624Z" fill="white" fill-opacity="0.25"/>
</g>
<defs>
<filter id="filter0_d" x="0.059082" y="0.52002" width="707.435" height="269.92" filterUnits="userSpaceOnUse" color-interpolation-filters="sRGB">
<feFlood flood-opacity="0" result="BackgroundImageFix"/>
<feColorMatrix in="SourceAlpha" type="matrix" values="0 0 0 0 0 0 0 0 0 0 0 0 0 0 0 0 0 0 127 0"/>
<feOffset dy="8"/>
<feGaussianBlur stdDeviation="16"/>
<feColorMatrix type="matrix" values="0 0 0 0 0 0 0 0 0 0 0 0 0 0 0 0 0 0 0.37 0"/>
<feBlend mode="normal" in2="BackgroundImageFix" result="effect1_dropShadow"/>
<feBlend mode="normal" in="SourceGraphic" in2="effect1_dropShadow" result="shape"/>
</filter>
</defs>
</svg>
